<svg width="147" height="170" viewBox="0 0 147 170" fill="none" xmlns="http://www.w3.org/2000/svg">
<path d="M107.393 116.87L146.999 119.459V138.268C146.999 148.081 143.043 155.758 135.13 161.301C127.297 166.843 116.356 169.615 102.306 169.615C94.1509 169.615 86.9242 168.388 80.626 165.935C74.3278 163.482 69.2811 159.938 65.486 155.304C61.691 150.579 59.4301 144.9 58.7034 138.268C58.4611 135.814 58.2593 132.589 58.0978 128.591C57.9363 124.502 57.8555 120.05 57.8555 115.234C57.8555 110.419 57.9363 106.012 58.0978 102.014C58.2593 98.0159 58.4611 94.7904 58.7034 92.3371C59.4301 85.6134 61.691 79.9345 65.486 75.3006C69.2811 70.5758 74.3278 66.9868 80.626 64.5335C86.9242 61.9894 94.1509 60.7174 102.306 60.7174C111.511 60.7174 119.424 61.9894 126.046 64.5335C132.748 67.0777 137.915 70.7121 141.549 75.4369C145.183 80.0708 146.999 85.7042 146.999 92.3371V104.74L107.393 109.51V98.4702C107.393 96.017 106.303 94.7904 104.123 94.7904C101.943 94.7904 100.853 96.017 100.853 98.4702V131.589C100.853 134.042 101.943 135.269 104.123 135.269C106.303 135.269 107.393 134.042 107.393 131.589V116.87Z" fill="url(#paint0_linear_2_4158)"/>
<path d="M17.9373 81.5292C21.4802 82.1163 24.9049 79.9716 25.7989 76.5152C33.5807 47.4339 61.0336 27.7869 91.0819 29.7332C94.6824 29.9731 97.8868 27.4349 98.4739 23.892C99.1532 19.7933 96.1514 15.9411 91.9836 15.6786C55.3306 13.3158 21.885 37.2516 12.2568 72.7363C11.1318 76.7254 13.7692 80.8384 17.9373 81.5292ZM45.9333 86.1689C49.3373 86.7331 52.6 84.7042 53.7199 81.3923C58.5865 67.3168 71.8676 57.812 86.7606 57.7463C90.2277 57.7142 93.2295 55.3209 93.7937 51.917L93.8052 51.8475C94.496 47.6793 91.3783 43.6652 87.1645 43.6806C66.02 43.5668 47.0298 57.1574 40.2759 77.2371C38.9309 81.2611 41.6957 85.4666 45.9333 86.1689Z" fill="url(#paint1_linear_2_4158)"/>
<defs>
<linearGradient id="paint0_linear_2_4158" x1="102.427" y1="60.7174" x2="102.427" y2="169.615" gradientUnits="userSpaceOnUse">
<stop stop-color="#6622CC"/>
<stop offset="1" stop-color="#22CCC2"/>
</linearGradient>
<linearGradient id="paint1_linear_2_4158" x1="41.9627" y1="30.0312" x2="84.9443" y2="90.0895" gradientUnits="userSpaceOnUse">
<stop stop-color="#6622CC"/>
<stop offset="1" stop-color="#22CCC2"/>
</linearGradient>
</defs>
</svg>
