<svg width="151" height="57" viewBox="0 0 151 57" fill="none" xmlns="http://www.w3.org/2000/svg">
<path d="M138.279 46.2302C138.002 46.2302 137.782 46.1813 137.619 46.0834C137.472 45.9856 137.366 45.8551 137.301 45.692C137.252 45.5126 137.227 45.3088 137.227 45.0805V30.1824C137.227 29.9704 137.26 29.791 137.325 29.6443C137.39 29.4975 137.505 29.3833 137.668 29.3018C137.847 29.2039 138.092 29.155 138.402 29.155C138.76 29.155 139.013 29.1876 139.16 29.2528C139.307 29.3181 139.453 29.4322 139.6 29.5953L148.798 42.6097V30.1824C148.798 29.9704 148.823 29.791 148.872 29.6443C148.937 29.4975 149.051 29.3833 149.214 29.3018C149.377 29.2039 149.614 29.155 149.924 29.155C150.217 29.155 150.437 29.2039 150.584 29.3018C150.747 29.3996 150.853 29.5382 150.902 29.7176C150.967 29.8807 151 30.0683 151 30.2803V45.1049C151 45.3169 150.959 45.5126 150.878 45.692C150.812 45.8551 150.69 45.9856 150.511 46.0834C150.348 46.1813 150.111 46.2302 149.801 46.2302C149.54 46.2302 149.32 46.1976 149.141 46.1324C148.978 46.0671 148.823 45.9448 148.676 45.7654L139.429 32.8489V45.1049C139.429 45.3169 139.396 45.5126 139.331 45.692C139.266 45.8551 139.152 45.9856 138.989 46.0834C138.826 46.1813 138.589 46.2302 138.279 46.2302Z" fill="url(#paint0_linear_2_2515)"/>
<path d="M123.709 46.2302C123.399 46.2302 123.163 46.1813 123 46.0834C122.853 46.0019 122.755 45.8796 122.706 45.7165C122.657 45.5371 122.633 45.3332 122.633 45.1049V30.2558C122.633 30.0438 122.657 29.8563 122.706 29.6932C122.771 29.5301 122.885 29.3996 123.049 29.3018C123.212 29.2039 123.44 29.155 123.734 29.155H129.091C129.874 29.155 130.591 29.2773 131.244 29.5219C131.912 29.7503 132.491 30.1091 132.981 30.5983C133.486 31.0713 133.878 31.6502 134.155 32.3352C134.432 33.0202 134.571 33.8111 134.571 34.7081C134.571 35.5888 134.432 36.3716 134.155 37.0566C133.878 37.7415 133.486 38.3205 132.981 38.7934C132.475 39.2501 131.888 39.6007 131.219 39.8454C130.567 40.09 129.849 40.2123 129.066 40.2123H124.859V45.1294C124.859 45.3577 124.826 45.5534 124.761 45.7165C124.712 45.8796 124.606 46.0019 124.443 46.0834C124.296 46.1813 124.052 46.2302 123.709 46.2302ZM124.859 37.9862H129.091C129.743 37.9862 130.314 37.8638 130.803 37.6192C131.293 37.3583 131.676 36.9832 131.953 36.4939C132.23 35.9883 132.369 35.3768 132.369 34.6592C132.369 33.9742 132.239 33.3871 131.978 32.8978C131.717 32.4086 131.333 32.0335 130.828 31.7725C130.339 31.5116 129.751 31.3811 129.066 31.3811H124.859V37.9862Z" fill="url(#paint1_linear_2_2515)"/>
<path d="M112.098 46.2302C111.804 46.2302 111.559 46.1812 111.364 46.0834C111.184 46.0018 111.046 45.8551 110.948 45.643L104.759 30.5249C104.596 30.1335 104.563 29.8562 104.661 29.6931C104.775 29.53 105.012 29.3588 105.37 29.1794C105.599 29.0652 105.794 29.0082 105.957 29.0082C106.137 28.9918 106.292 29.0408 106.422 29.1549C106.569 29.2528 106.691 29.424 106.789 29.6687L112.098 43.1478L117.382 29.8888C117.48 29.6279 117.586 29.424 117.7 29.2772C117.83 29.1142 117.993 29.0245 118.189 29.0082C118.385 28.9755 118.629 29.0408 118.923 29.2039C119.379 29.4159 119.608 29.6523 119.608 29.9133C119.608 30.1579 119.543 30.4352 119.412 30.745L113.247 45.6186C113.166 45.8143 113.027 45.9611 112.832 46.0589C112.636 46.1731 112.391 46.2302 112.098 46.2302Z" fill="url(#paint2_linear_2_2515)"/>
<path d="M94.1973 46.1326C93.3982 46.1326 92.6725 45.9858 92.0201 45.6922C91.3678 45.3987 90.8133 44.991 90.3566 44.4691C89.9 43.9309 89.5412 43.303 89.2803 42.5854C89.0356 41.8679 88.9215 41.0769 88.9378 40.2125C88.9378 39.3645 89.0601 38.5816 89.3047 37.8641C89.5494 37.1465 89.9 36.5267 90.3566 36.0049C90.8296 35.4667 91.3841 35.059 92.0201 34.7817C92.6725 34.4882 93.3982 34.3414 94.1973 34.3414C94.9475 34.3414 95.6488 34.4882 96.3012 34.7817C96.9698 35.0753 97.5488 35.4911 98.038 36.0293C98.5436 36.5512 98.935 37.1791 99.2123 37.913C99.5058 38.6469 99.6526 39.4379 99.6526 40.2859C99.6526 41.134 99.5058 41.9168 99.2123 42.6344C98.935 43.3519 98.5436 43.9717 98.038 44.4936C97.5488 45.0154 96.9698 45.4232 96.3012 45.7167C95.6488 45.994 94.9475 46.1326 94.1973 46.1326ZM89.109 51.0497C88.7992 51.0497 88.5627 51.0007 88.3996 50.9029C88.2528 50.8213 88.1468 50.699 88.0816 50.5359C88.0326 50.3728 88.0082 50.1771 88.0082 49.9488V35.4911C88.0082 35.2628 88.0326 35.0671 88.0816 34.904C88.1305 34.7409 88.2283 34.6186 88.3751 34.5371C88.5382 34.4392 88.7747 34.3903 89.0846 34.3903C89.4433 34.3903 89.7043 34.4474 89.8674 34.5615C90.0468 34.6757 90.1528 34.8796 90.1854 35.1731V49.9244C90.2017 50.1527 90.1854 50.3484 90.1365 50.5115C90.0875 50.6909 89.9815 50.8213 89.8184 50.9029C89.6717 51.0007 89.4352 51.0497 89.109 51.0497ZM93.8793 44.1266C94.5643 44.1266 95.184 43.9635 95.7385 43.6373C96.293 43.2949 96.7252 42.8301 97.0351 42.243C97.3612 41.6558 97.5243 40.9872 97.5243 40.237C97.5243 39.4705 97.3612 38.8018 97.0351 38.231C96.7252 37.6602 96.293 37.2199 95.7385 36.91C95.2003 36.5838 94.5806 36.4207 93.8793 36.4207C93.1944 36.4207 92.5746 36.5838 92.0201 36.91C91.4819 37.2362 91.0498 37.6847 90.7236 38.2555C90.4137 38.8263 90.2588 39.4868 90.2588 40.237C90.2588 40.9872 90.4137 41.6558 90.7236 42.243C91.0498 42.8301 91.4819 43.2949 92.0201 43.6373C92.5746 43.9635 93.1944 44.1266 93.8793 44.1266Z" fill="url(#paint3_linear_2_2515)"/>
<path d="M84.2355 46.2057C83.8767 46.2057 83.6158 46.1323 83.4527 45.9855C83.3059 45.8388 83.2162 45.6104 83.1836 45.3006L83.2815 44.0774C83.1184 44.3384 82.8656 44.6401 82.5231 44.9826C82.1806 45.3087 81.7321 45.6023 81.1776 45.8632C80.6232 46.1079 79.9463 46.2302 79.1472 46.2302C78.3644 46.2302 77.6305 46.0752 76.9455 45.7654C76.2769 45.4555 75.6816 45.0233 75.1597 44.4688C74.6542 43.9143 74.2546 43.2783 73.961 42.5607C73.6838 41.8431 73.5452 41.0766 73.5452 40.2612C73.5452 39.462 73.6838 38.7118 73.961 38.0106C74.2546 37.293 74.6623 36.6651 75.1842 36.1269C75.7061 35.5887 76.3013 35.1647 76.97 34.8548C77.655 34.545 78.3807 34.39 79.1472 34.39C79.8648 34.39 80.4764 34.4879 80.9819 34.6836C81.4875 34.863 81.9197 35.1076 82.2785 35.4175C82.6536 35.711 82.9798 36.0454 83.257 36.4205L83.2081 35.393C83.1918 35.0342 83.2652 34.7814 83.4283 34.6347C83.6076 34.4716 83.8849 34.39 84.26 34.39C84.5699 34.39 84.79 34.439 84.9205 34.5368C85.0673 34.6347 85.1651 34.7733 85.2141 34.9527C85.263 35.1321 85.2874 35.3523 85.2874 35.6132V45.0559C85.2874 45.2843 85.263 45.4881 85.2141 45.6675C85.1651 45.8469 85.0673 45.9774 84.9205 46.0589C84.7737 46.1568 84.5454 46.2057 84.2355 46.2057ZM79.5142 44.1753C80.1665 44.1753 80.7618 44.004 81.3 43.6615C81.8545 43.3191 82.2866 42.8624 82.5965 42.2916C82.9227 41.7045 83.0858 41.0358 83.0858 40.2856C83.0858 39.5191 82.9145 38.8505 82.572 38.2797C82.2459 37.6926 81.8055 37.2359 81.251 36.9097C80.7128 36.5673 80.1176 36.396 79.4652 36.396C78.6987 36.396 78.0301 36.5754 77.4593 36.9342C76.9048 37.2767 76.4644 37.7415 76.1383 38.3286C75.8121 38.9157 75.649 39.5844 75.649 40.3346C75.649 41.0685 75.8121 41.729 76.1383 42.3161C76.4644 42.8869 76.9129 43.3435 77.4837 43.686C78.0708 44.0122 78.7476 44.1753 79.5142 44.1753Z" fill="url(#paint4_linear_2_2515)"/>
<path d="M66.5376 46.279C65.6569 46.279 64.8007 46.1486 63.969 45.8876C63.1372 45.6267 62.3626 45.2516 61.645 44.7623C60.9274 44.2731 60.2914 43.6696 59.7369 42.9521C59.1987 42.2182 58.7747 41.4027 58.4648 40.5058C58.1549 39.5925 58 38.5895 58 37.4968C58 36.453 58.1549 35.4908 58.4648 34.6102C58.7747 33.7132 59.1987 32.9222 59.7369 32.2372C60.2751 31.5523 60.903 30.9733 61.6205 30.5004C62.3544 30.0111 63.1372 29.6441 63.969 29.3995C64.817 29.1386 65.6814 29.0081 66.5621 29.0081C67.3775 29.0081 68.0788 29.0897 68.6659 29.2527C69.253 29.4158 69.7341 29.5952 70.1092 29.7909C70.4843 29.9703 70.7371 30.1089 70.8676 30.2068C71.0959 30.3373 71.3161 30.4922 71.5281 30.6716C71.7401 30.851 71.8543 31.063 71.8706 31.3076C71.9032 31.487 71.8869 31.6338 71.8216 31.748C71.7727 31.8621 71.7075 31.9845 71.6259 32.1149C71.4955 32.3106 71.3568 32.4574 71.2101 32.5553C71.0796 32.6368 70.9328 32.6776 70.7697 32.6776C70.6066 32.6776 70.4599 32.6286 70.3294 32.5308C70.1989 32.4329 70.0277 32.3188 69.8157 32.1883C69.7178 32.1231 69.5221 32.0171 69.2286 31.8703C68.935 31.7235 68.5599 31.5849 68.1033 31.4544C67.6466 31.3076 67.0921 31.2342 66.4398 31.2342C65.608 31.2342 64.8089 31.3892 64.0424 31.699C63.2922 31.9926 62.6317 32.4166 62.0609 32.9711C61.4901 33.5256 61.0416 34.1943 60.7154 34.9771C60.3892 35.7599 60.2261 36.6406 60.2261 37.6191C60.2261 38.6139 60.3892 39.5109 60.7154 40.3101C61.0416 41.0929 61.4901 41.7615 62.0609 42.316C62.648 42.8705 63.3166 43.2945 64.0668 43.5881C64.817 43.8817 65.608 44.0284 66.4398 44.0284C67.0595 44.0284 67.5977 43.9632 68.0543 43.8327C68.5273 43.7023 68.9105 43.5636 69.2041 43.4169C69.514 43.2538 69.726 43.1315 69.8401 43.0499C70.0195 42.9521 70.1745 42.8542 70.3049 42.7564C70.4517 42.6585 70.6066 42.6096 70.7697 42.6096C70.9328 42.6096 71.0796 42.6585 71.2101 42.7564C71.3568 42.8379 71.4955 42.9765 71.6259 43.1722C71.7075 43.2864 71.7727 43.4169 71.8216 43.5636C71.8869 43.6941 71.9032 43.8409 71.8706 44.004C71.8543 44.2486 71.7401 44.4606 71.5281 44.64C71.3161 44.8031 71.0959 44.958 70.8676 45.1048C70.7208 45.1701 70.4599 45.3087 70.0848 45.5207C69.726 45.7164 69.253 45.8876 68.6659 46.0344C68.0788 46.1975 67.3694 46.279 66.5376 46.279Z" fill="url(#paint5_linear_2_2515)"/>
<path d="M35.7557 39.2752L49.0657 40.1454V46.4661C49.0657 49.7639 47.736 52.3441 45.0767 54.2067C42.4446 56.0693 38.7677 57.0006 34.0461 57.0006C31.3055 57.0006 28.8768 56.5884 26.7603 55.764C24.6437 54.9395 22.9477 53.7487 21.6723 52.1914C20.397 50.6036 19.6372 48.6952 19.393 46.4661C19.3115 45.6417 19.2437 44.5577 19.1894 43.2142C19.1352 41.8401 19.108 40.3439 19.108 38.7255C19.108 37.1072 19.1352 35.6262 19.1894 34.2827C19.2437 32.9392 19.3115 31.8552 19.393 31.0308C19.6372 28.7712 20.397 26.8627 21.6723 25.3055C22.9477 23.7177 24.6437 22.5115 26.7603 21.6871C28.8768 20.8321 31.3055 20.4046 34.0461 20.4046C37.1396 20.4046 39.7989 20.8321 42.024 21.6871C44.2762 22.5421 46.0129 23.7635 47.234 25.3513C48.4551 26.9086 49.0657 28.8017 49.0657 31.0308V35.1988L35.7557 36.8018V33.0919C35.7557 32.2674 35.3894 31.8552 34.6567 31.8552C33.924 31.8552 33.5577 32.2674 33.5577 33.0919V44.2218C33.5577 45.0462 33.924 45.4585 34.6567 45.4585C35.3894 45.4585 35.7557 45.0462 35.7557 44.2218V39.2752Z" fill="url(#paint6_linear_2_2515)"/>
<path d="M6.02801 27.3987C7.21864 27.596 8.36953 26.8752 8.66997 25.7137C11.2851 15.9406 20.5109 9.33805 30.609 9.99214C31.8189 10.0727 32.8958 9.21976 33.0931 8.02913C33.3214 6.65173 32.3126 5.35716 30.912 5.26896C18.5944 4.47489 7.35466 12.5188 4.11903 24.4437C3.74094 25.7843 4.62726 27.1665 6.02801 27.3987ZM15.4363 28.9579C16.5803 29.1475 17.6767 28.4657 18.0531 27.3527C19.6886 22.6225 24.1518 19.4283 29.1567 19.4062C30.3219 19.3954 31.3307 18.5911 31.5203 17.4472L31.5242 17.4239C31.7563 16.0231 30.7086 14.6741 29.2925 14.6793C22.1867 14.641 15.8048 19.2083 13.5351 25.9563C13.0831 27.3086 14.0122 28.7219 15.4363 28.9579Z" fill="url(#paint7_linear_2_2515)"/>
<defs>
<linearGradient id="paint0_linear_2_2515" x1="144.114" y1="46.2302" x2="144.114" y2="29.155" gradientUnits="userSpaceOnUse">
<stop stop-color="#6622CC"/>
<stop offset="1" stop-color="#22CCC2"/>
</linearGradient>
<linearGradient id="paint1_linear_2_2515" x1="128.602" y1="46.2302" x2="128.602" y2="29.155" gradientUnits="userSpaceOnUse">
<stop stop-color="#6622CC"/>
<stop offset="1" stop-color="#22CCC2"/>
</linearGradient>
<linearGradient id="paint2_linear_2_2515" x1="112.107" y1="46.2302" x2="112.107" y2="29" gradientUnits="userSpaceOnUse">
<stop stop-color="#6622CC"/>
<stop offset="1" stop-color="#22CCC2"/>
</linearGradient>
<linearGradient id="paint3_linear_2_2515" x1="93.8304" y1="51.0497" x2="93.8304" y2="34.3414" gradientUnits="userSpaceOnUse">
<stop stop-color="#6622CC"/>
<stop offset="1" stop-color="#22CCC2"/>
</linearGradient>
<linearGradient id="paint4_linear_2_2515" x1="79.4163" y1="46.2302" x2="79.4163" y2="34.39" gradientUnits="userSpaceOnUse">
<stop stop-color="#6622CC"/>
<stop offset="1" stop-color="#22CCC2"/>
</linearGradient>
<linearGradient id="paint5_linear_2_2515" x1="64.9434" y1="46.279" x2="64.9434" y2="29.0081" gradientUnits="userSpaceOnUse">
<stop stop-color="#6622CC"/>
<stop offset="1" stop-color="#22CCC2"/>
</linearGradient>
<linearGradient id="paint6_linear_2_2515" x1="34.0869" y1="20.4046" x2="34.0869" y2="57.0006" gradientUnits="userSpaceOnUse">
<stop stop-color="#6622CC"/>
<stop offset="1" stop-color="#22CCC2"/>
</linearGradient>
<linearGradient id="paint7_linear_2_2515" x1="14.102" y1="10.0923" x2="27.1148" y2="28.2752" gradientUnits="userSpaceOnUse">
<stop stop-color="#6622CC"/>
<stop offset="1" stop-color="#22CCC2"/>
</linearGradient>
</defs>
</svg>
